# xmcd
#
# Track frame offsets: 
#        183
#        19683
#        42058
#        67258
#        90183
#        112695
#        152145
#        176708
#        194408
#        217645
#        246120
#        266545
#        278608
#        291745
#        320995
#
# Disc length: 4539 seconds
#
# Revision: 1
# Processed by: cddbd v1.5.2PL0 Copyright (c) Steve Scherf et al.
# Submitted via: ExactAudioCopy v1.0b1
#
DISCID=d411b90f
DTITLE=Slow Blues - Slow Blues
DYEAR=1992
DGENRE=Blues
TTITLE0=Eric Clapton - Double Trouble
TTITLE1=The Allman Brothers Band - It's Not My Cross To Bear
TTITLE2=Freddie King - Tain't Nobody's Bizness If I Do
TTITLE3=Roy Buchanan - John's Blues
TTITLE4=Derek And The Dominos - Nobody Knows You When You're Down And 
TTITLE4=Out
TTITLE5=Duane Allman - Goin' Down Slow
TTITLE6=Elvin Bishop - Little Brown Bird
TTITLE7=Eric Burdon - I Was Born To Live The Blues
TTITLE8=West, Bruce and Laing - Slow Blues
TTITLE9=Sir Douglas Quintet - Westside Blues Again
TTITLE10=Savoy Brown - Someday People
TTITLE11=Them - Stormy Monday
TTITLE12=John Mayall - It Hurts Me Too
TTITLE13=Rick Derringer And The McCoys - Stormy Monday Blues
TTITLE14=Cream - Sleepy Time Time
EXTD=
EXTT0=
EXTT1=
EXTT2=
EXTT3=
EXTT4=
EXTT5=
EXTT6=
EXTT7=
EXTT8=
EXTT9=
EXTT10=
EXTT11=
EXTT12=
EXTT13=
EXTT14=
PLAYORDER=
